<svg width="16" height="16" viewBox="0 0 16 16" fill="none" xmlns="http://www.w3.org/2000/svg">
<path d="M7.11202 12.8866C7.11202 13.2425 7.40055 13.5309 7.75636 13.5309C8.11223 13.5309 8.4007 13.2425 8.4007 12.8866V8.37614H12.9111C13.2669 8.37614 13.5554 8.08767 13.5554 7.7318C13.5554 7.37594 13.2669 7.08747 12.9111 7.08747H8.4007V2.57715C8.4007 2.2213 8.11223 1.93282 7.75636 1.93282C7.40055 1.93282 7.11202 2.2213 7.11202 2.57715V7.08747H2.60168C2.24582 7.08747 1.95734 7.37594 1.95734 7.7318C1.95734 8.08767 2.24582 8.37614 2.60168 8.37614H7.11202V12.8866Z" fill="black"/>
</svg>
