<svg width="37" height="38" viewBox="0 0 37 38" fill="none" xmlns="http://www.w3.org/2000/svg">
<path d="M34.71 18.8649C34.71 27.7345 27.5195 34.9331 18.6418 34.9331C9.7641 34.9331 2.57358 27.7345 2.57358 18.8649C2.57358 9.98719 9.7641 2.79667 18.6418 2.79667C27.5195 2.79667 34.71 9.98719 34.71 18.8649Z" fill="#283544"/>
<path d="M26.1733 14.7989C26.0856 14.8501 23.9983 15.9296 23.9983 18.323C24.0967 21.0526 26.6324 22.0098 26.6759 22.0098C26.6324 22.061 26.2931 23.3138 25.2879 24.6271C24.4902 25.7584 23.6048 26.899 22.2603 26.899C20.9814 26.899 20.5223 26.145 19.0467 26.145C17.462 26.145 17.0136 26.899 15.8002 26.899C14.4558 26.899 13.5048 25.6973 12.6636 24.5766C11.5707 23.1099 10.6419 20.8081 10.6091 18.598C10.587 17.4269 10.8279 16.2756 11.4396 15.2978C12.3029 13.9327 13.8441 13.006 15.5272 12.9754C16.8168 12.9349 17.9645 13.8005 18.7515 13.8005C19.5058 13.8005 20.9158 12.9754 22.5113 12.9754C23.1999 12.9761 25.0363 13.1694 26.1733 14.7989ZM18.6425 12.7416C18.4129 11.6721 19.0467 10.6026 19.6369 9.92037C20.3912 9.09532 21.5824 8.53532 22.6096 8.53532C22.6752 9.60483 22.2596 10.6537 21.5168 11.4177C20.8503 12.2427 19.7025 12.8638 18.6425 12.7416Z" fill="white"/>
</svg>
