<svg width="32" height="32" viewBox="0 0 32 32" fill="none" xmlns="http://www.w3.org/2000/svg">
<path fill-rule="evenodd" clip-rule="evenodd" d="M26.2882 16.2806C26.2882 15.5039 26.2185 14.757 26.089 14.04H15.7725V18.2772H21.6677C21.4137 19.6464 20.642 20.8065 19.4819 21.5832V24.3316H23.0219C25.0932 22.4247 26.2882 19.6165 26.2882 16.2806Z" fill="#4285F4"/>
<path fill-rule="evenodd" clip-rule="evenodd" d="M15.7725 26.9853C18.73 26.9853 21.2095 26.0044 23.0219 24.3315L19.4818 21.5831C18.501 22.2403 17.2462 22.6287 15.7725 22.6287C12.9195 22.6287 10.5047 20.7018 9.64332 18.1127H5.98376V20.9507C7.78616 24.5306 11.4905 26.9853 15.7725 26.9853Z" fill="#34A853"/>
<path fill-rule="evenodd" clip-rule="evenodd" d="M9.64328 18.113C9.4242 17.4557 9.29973 16.7537 9.29973 16.0317C9.29973 15.3098 9.4242 14.6078 9.64328 13.9505V11.1125H5.98372C5.24185 12.5913 4.81863 14.2642 4.81863 16.0317C4.81863 17.7993 5.24185 19.4722 5.98372 20.951L9.64328 18.113Z" fill="#FBBC05"/>
<path fill-rule="evenodd" clip-rule="evenodd" d="M15.7725 9.43455C17.3807 9.43455 18.8246 9.98721 19.9598 11.0726L23.1015 7.93089C21.2045 6.16335 18.725 5.07793 15.7725 5.07793C11.4905 5.07793 7.78616 7.53257 5.98376 11.1125L9.64332 13.9505C10.5047 11.3614 12.9195 9.43455 15.7725 9.43455Z" fill="#EA4335"/>
</svg>
