<svg width="23" height="23" viewBox="0 0 23 23" fill="none" xmlns="http://www.w3.org/2000/svg">
<path d="M8.32945 16.0413H13.8063M15.632 19.6926H6.50383C5.53545 19.6926 4.60674 19.3079 3.922 18.6231C3.23725 17.9384 2.85257 17.0097 2.85257 16.0413V10.2979C2.85256 9.67006 3.01443 9.05284 3.32255 8.50584C3.63067 7.95883 4.07463 7.50051 4.61156 7.17514L9.17563 4.40932C9.74624 4.06354 10.4007 3.88072 11.0679 3.88072C11.7351 3.88072 12.3895 4.06354 12.9602 4.40932L17.5242 7.17514C18.061 7.50043 18.5049 7.9586 18.813 8.50544C19.1211 9.05227 19.2831 9.6693 19.2832 10.297V16.0413C19.2832 17.0097 18.8985 17.9384 18.2138 18.6231C17.529 19.3079 16.6003 19.6926 15.632 19.6926Z" stroke="black" stroke-width="1.36922" stroke-linecap="round" stroke-linejoin="round"/>
</svg>
