<svg width="25" height="24" viewBox="0 0 25 24" fill="none" xmlns="http://www.w3.org/2000/svg">
<path fill-rule="evenodd" clip-rule="evenodd" d="M12.4707 23.2792C18.8762 23.2792 24.0688 18.0866 24.0688 11.6811C24.0688 5.27566 18.8762 0.0830078 12.4707 0.0830078C6.06527 0.0830078 0.87262 5.27566 0.87262 11.6811C0.87262 18.0866 6.06527 23.2792 12.4707 23.2792ZM13.4561 4.91617C13.4561 4.60275 13.0539 4.47387 12.8718 4.72891L7.37659 12.4222C7.22429 12.6354 7.37671 12.9316 7.63875 12.9316H10.8788V18.3697C10.8788 18.6831 11.2809 18.8119 11.4631 18.5569L16.9582 10.8637C17.1105 10.6504 16.9582 10.3542 16.6961 10.3542H13.4561V4.91617Z" fill="#1C1C1C"/>
</svg>
