<svg width="32" height="31" viewBox="0 0 32 31" fill="none" xmlns="http://www.w3.org/2000/svg">
<path d="M13.6357 26.9929C8.1588 26.0264 3.9706 21.2582 3.9706 15.5236C3.9706 9.14467 9.18974 3.92552 15.5687 3.92552C21.9477 3.92552 27.1668 9.14467 27.1668 15.5236C27.1668 21.2582 22.9786 26.0264 17.5017 26.9929L16.8574 26.4774H14.28L13.6357 26.9929Z" fill="url(#paint0_linear_2_1856)"/>
<path d="M20.079 18.7451L20.5945 15.5234H17.5016V13.2683C17.5016 12.3662 17.8238 11.6574 19.2414 11.6574H20.7233V8.69345C19.8857 8.56458 18.9836 8.43571 18.146 8.43571C15.5042 8.43571 13.6356 10.0466 13.6356 12.9461V15.5234H10.7361V18.7451H13.6356V26.9283C14.2799 27.0571 14.9243 27.1216 15.5686 27.1216C16.213 27.1216 16.8573 27.0571 17.5016 26.9283V18.7451H20.079Z" fill="white"/>
<defs>
<linearGradient id="paint0_linear_2_1856" x1="15.5687" y1="26.3189" x2="15.5687" y2="3.92552" gradientUnits="userSpaceOnUse">
<stop stop-color="#0062E0"/>
<stop offset="1" stop-color="#19AFFF"/>
</linearGradient>
</defs>
</svg>
