<svg width="23" height="23" viewBox="0 0 23 23" fill="none" xmlns="http://www.w3.org/2000/svg">
<path d="M17.4576 18.7561H4.6782C4.19401 18.7561 3.72966 18.5637 3.38728 18.2213C3.04491 17.879 2.85257 17.4146 2.85257 16.9304V5.97667C2.85257 5.49248 3.04491 5.02812 3.38728 4.68575C3.72966 4.34338 4.19401 4.15104 4.6782 4.15104H13.8063C14.2905 4.15104 14.7549 4.34338 15.0972 4.68575C15.4396 5.02812 15.632 5.49248 15.632 5.97667V6.88948M17.4576 18.7561C16.9734 18.7561 16.5091 18.5637 16.1667 18.2213C15.8243 17.879 15.632 17.4146 15.632 16.9304V6.88948M17.4576 18.7561C17.9418 18.7561 18.4061 18.5637 18.7485 18.2213C19.0909 17.879 19.2832 17.4146 19.2832 16.9304V8.71511C19.2832 8.23092 19.0909 7.76657 18.7485 7.42419C18.4061 7.08182 17.9418 6.88948 17.4576 6.88948H15.632M11.9807 4.15104H8.32945M6.50383 15.1048H11.9807M6.50383 7.80229H11.9807V11.4536H6.50383V7.80229Z" stroke="black" stroke-width="1.28868" stroke-linecap="round" stroke-linejoin="round"/>
</svg>
