<svg width="23" height="23" viewBox="0 0 23 23" fill="none" xmlns="http://www.w3.org/2000/svg">
<path d="M6.65785 2.48595L7.7231 2.16555C8.30665 1.98958 8.9343 2.03194 9.48891 2.28472C10.0435 2.53751 10.4872 2.98345 10.7372 3.53933L11.5606 5.37044C11.7755 5.84857 11.8354 6.382 11.7317 6.89587C11.6281 7.40975 11.3662 7.87829 10.9828 8.23576L9.61901 9.50731C9.57915 9.54446 9.5539 9.59465 9.54782 9.6488C9.50765 10.0112 9.7532 10.7168 10.3191 11.6981C10.7308 12.411 11.1042 12.9121 11.4209 13.1923C11.6418 13.3886 11.7632 13.4306 11.8152 13.416L13.65 12.8546C14.1511 12.7013 14.6875 12.7087 15.1842 12.8757C15.6808 13.0427 16.1128 13.3608 16.4195 13.7857L17.5888 15.4068C17.9444 15.8998 18.109 16.5051 18.0521 17.1103C17.9952 17.7155 17.7206 18.2795 17.2794 18.6975L16.4706 19.4643C16.0414 19.8708 15.5142 20.1592 14.9404 20.3014C14.3666 20.4436 13.7657 20.4348 13.1963 20.2758C10.6824 19.5738 8.42871 17.4524 6.40956 13.9555C4.38768 10.4539 3.67842 7.43796 4.332 4.90673C4.47912 4.33744 4.77041 3.81564 5.17779 3.39164C5.58516 2.96763 6.09489 2.65571 6.65785 2.48595ZM7.05309 3.79766C6.71542 3.8994 6.40963 4.08637 6.16518 4.34057C5.92073 4.59477 5.74586 4.90764 5.6574 5.24903C5.10789 7.37772 5.73682 10.0513 7.59531 13.2708C9.45106 16.4858 11.4492 18.3662 13.5651 18.9577C13.9066 19.0528 14.267 19.0579 14.611 18.9725C14.9551 18.8871 15.2712 18.714 15.5286 18.4702L16.3382 17.7035C16.5389 17.5134 16.6637 17.257 16.6896 16.9818C16.7154 16.7067 16.6405 16.4315 16.4788 16.2074L15.3104 14.5871C15.171 14.3938 14.9745 14.249 14.7486 14.173C14.5227 14.0971 14.2786 14.0938 14.0507 14.1636L12.2114 14.7268C11.1434 15.0444 10.174 14.1855 9.1334 12.3827C8.43236 11.1686 8.10557 10.2284 8.18681 9.49727C8.22971 9.11754 8.40589 8.76702 8.68521 8.50595L10.049 7.2344C10.2233 7.07194 10.3424 6.85895 10.3896 6.62533C10.4367 6.39171 10.4095 6.1492 10.3118 5.93182L9.48848 4.10071C9.37486 3.84824 9.1733 3.64569 8.92139 3.53082C8.66948 3.41594 8.38439 3.39658 8.11926 3.47635L7.05309 3.79766Z" fill="black"/>
</svg>
