<svg width="23" height="23" viewBox="0 0 23 23" fill="none" xmlns="http://www.w3.org/2000/svg">
<g clip-path="url(#clip0_2_1810)">
<path d="M6.60667 17.2133V16.3004C6.60667 15.09 7.08753 13.9291 7.94346 13.0732C8.79939 12.2172 9.96028 11.7364 11.1707 11.7364M11.1707 11.7364C12.3812 11.7364 13.5421 12.2172 14.398 13.0732C15.254 13.9291 15.7348 15.09 15.7348 16.3004V17.2133M11.1707 11.7364C11.897 11.7364 12.5936 11.4479 13.1071 10.9343C13.6207 10.4207 13.9092 9.72421 13.9092 8.99793C13.9092 8.27165 13.6207 7.57512 13.1071 7.06156C12.5936 6.548 11.897 6.25949 11.1707 6.25949C10.4445 6.25949 9.74793 6.548 9.23437 7.06156C8.72082 7.57512 8.4323 8.27165 8.4323 8.99793C8.4323 9.72421 8.72082 10.4207 9.23437 10.9343C9.74793 11.4479 10.4445 11.7364 11.1707 11.7364ZM1.12979 17.2133V16.3004C1.12979 15.5742 1.4183 14.8776 1.93186 14.3641C2.44542 13.8505 3.14195 13.562 3.86823 13.562M3.86823 13.562C4.35242 13.562 4.81678 13.3697 5.15915 13.0273C5.50152 12.6849 5.69386 12.2206 5.69386 11.7364C5.69386 11.2522 5.50152 10.7878 5.15915 10.4455C4.81678 10.1031 4.35242 9.91075 3.86823 9.91075C3.38405 9.91075 2.91969 10.1031 2.57732 10.4455C2.23495 10.7878 2.04261 11.2522 2.04261 11.7364C2.04261 12.2206 2.23495 12.6849 2.57732 13.0273C2.91969 13.3697 3.38405 13.562 3.86823 13.562ZM21.2117 17.2133V16.3004C21.2117 15.5742 20.9232 14.8776 20.4096 14.3641C19.8961 13.8505 19.1995 13.562 18.4733 13.562M18.4733 13.562C18.9574 13.562 19.4218 13.3697 19.7642 13.0273C20.1065 12.6849 20.2989 12.2206 20.2989 11.7364C20.2989 11.2522 20.1065 10.7878 19.7642 10.4455C19.4218 10.1031 18.9574 9.91075 18.4733 9.91075C17.9891 9.91075 17.5247 10.1031 17.1823 10.4455C16.84 10.7878 16.6476 11.2522 16.6476 11.7364C16.6476 12.2206 16.84 12.6849 17.1823 13.0273C17.5247 13.3697 17.9891 13.562 18.4733 13.562Z" stroke="black" stroke-width="1.28868" stroke-linecap="round" stroke-linejoin="round"/>
</g>
<defs>
<clipPath id="clip0_2_1810">
<rect width="21.9075" height="21.9075" fill="white" transform="translate(0.21698 0.782684)"/>
</clipPath>
</defs>
</svg>
