<svg width="469" height="195" viewBox="0 0 469 195" fill="none" xmlns="http://www.w3.org/2000/svg">
<path d="M9.13791 167.263H0.117157V194.326H468.552V53.8596L460.82 79.311L450.188 91.8756L445.356 151.155L426.67 114.427H410.883L401.218 76.0893L395.097 102.829L391.875 95.7416H386.398L377.7 50.6379L369.324 77.0558L358.37 12.9441L349.993 41.295L341.295 44.8388L327.764 108.306L316.488 78.3445L310.044 112.494L295.225 106.373L289.748 167.263L273.961 111.528L263.974 105.729L256.242 32.5964H249.154L240.456 72.8676L232.079 15.8436L223.059 34.2072L215.649 3.27896L209.85 0.0572662L201.473 48.0605L195.352 27.4417L185.365 53.2153H179.888L176.666 71.5789L166.679 100.574H159.591L150.57 35.4959L143.483 65.7799L129.952 78.3445L130.918 86.0766L124.475 100.574L121.897 115.394L114.487 122.804L103.856 170.485L94.835 100.574H90.3246L84.8478 125.703H73.894L54.886 152.766L41.677 89.6204H35.2336L28.4681 152.766L12.0374 177.251L9.13791 167.263Z" fill="url(#paint0_linear_2_2079)"/>
<defs>
<linearGradient id="paint0_linear_2_2079" x1="234.334" y1="-407.487" x2="234.334" y2="194.326" gradientUnits="userSpaceOnUse">
<stop stop-color="#46B49E"/>
<stop offset="1" stop-color="#46B49E" stop-opacity="0"/>
</linearGradient>
</defs>
</svg>
