<svg width="23" height="23" viewBox="0 0 23 23" fill="none" xmlns="http://www.w3.org/2000/svg">
<path d="M14.4909 11.1281C14.3094 11.1281 14.1352 11.2002 14.0069 11.3286C13.8785 11.457 13.8063 11.6312 13.8063 11.8127C13.8063 11.9943 13.8785 12.1684 14.0069 12.2968C14.1352 12.4252 14.3094 12.4973 14.4909 12.4973H15.8602C16.0417 12.4973 16.2159 12.4252 16.3443 12.2968C16.4727 12.1684 16.5448 11.9943 16.5448 11.8127C16.5448 11.6312 16.4727 11.457 16.3443 11.3286C16.2159 11.2002 16.0417 11.1281 15.8602 11.1281H14.4909ZM4.9064 2.9128C4.36169 2.9128 3.83929 3.12918 3.45412 3.51435C3.06895 3.89952 2.85257 4.42192 2.85257 4.96663V15.9204C2.85257 16.8282 3.21321 17.6989 3.85516 18.3409C4.49711 18.9828 5.36777 19.3434 6.27562 19.3434H16.5448C17.2711 19.3434 17.9676 19.0549 18.4811 18.5414C18.9947 18.0278 19.2832 17.3313 19.2832 16.605V8.38968C19.2832 7.90899 19.1567 7.43678 18.9163 7.0205C18.676 6.60422 18.3303 6.25853 17.914 6.01819V5.65124C17.914 4.92496 17.6255 4.22842 17.1119 3.71487C16.5984 3.20131 15.9018 2.9128 15.1756 2.9128H4.9064ZM4.9064 4.28202H15.1756C15.5387 4.28202 15.887 4.42627 16.1437 4.68305C16.4005 4.93983 16.5448 5.2881 16.5448 5.65124H4.9064C4.72483 5.65124 4.5507 5.57911 4.42231 5.45072C4.29392 5.32233 4.22179 5.1482 4.22179 4.96663C4.22179 4.78506 4.29392 4.61092 4.42231 4.48253C4.5507 4.35415 4.72483 4.28202 4.9064 4.28202ZM4.9064 7.02046H16.5448C16.9079 7.02046 17.2562 7.16472 17.513 7.42149C17.7697 7.67827 17.914 8.02654 17.914 8.38968V16.605C17.914 16.9681 17.7697 17.3164 17.513 17.5732C17.2562 17.83 16.9079 17.9742 16.5448 17.9742H6.27562C5.73091 17.9742 5.20851 17.7578 4.82334 17.3727C4.43818 16.9875 4.22179 16.4651 4.22179 15.9204V6.90407C4.43539 6.97938 4.66679 7.02046 4.9064 7.02046Z" fill="black"/>
</svg>
